<svg width="123" height="48" viewBox="0 0 123 48" fill="none" xmlns="http://www.w3.org/2000/svg">
<g clip-path="url(#clip0_3692_12255)">
<path fill-rule="evenodd" clip-rule="evenodd" d="M13.504 17.416L42.6295 40.8085H0.468384L13.504 17.416Z" fill="white"/>
<path fill-rule="evenodd" clip-rule="evenodd" d="M12.7412 7.35672L22.7171 0.945312C30.1043 14.1741 37.4756 27.3748 44.8311 40.5476L12.7412 7.35672Z" fill="white"/>
<path fill-rule="evenodd" clip-rule="evenodd" d="M15.8935 13.1709L42.6295 40.8087L13.504 17.4162L15.8935 13.1709Z" fill="#ACACAC"/>
<path fill-rule="evenodd" clip-rule="evenodd" d="M105.098 15.4092V27.1562H102.611V12.8632H102.981C107.067 12.8632 111.156 12.8632 115.243 12.8632C116.965 12.8632 118.381 12.1586 119.343 10.6478C119.724 10.0463 119.96 9.3596 120.033 8.64463C120.105 7.92966 120.012 7.2071 119.76 6.537C119.508 5.86689 119.106 5.26858 118.585 4.79179C118.065 4.31499 117.442 3.97348 116.768 3.79561C116.253 3.6553 115.722 3.58223 115.189 3.57813C111.482 3.55783 107.771 3.57813 104.064 3.56363C103.968 3.55171 103.872 3.57402 103.791 3.62682C103.71 3.67962 103.649 3.7597 103.618 3.85361C99.8988 11.5168 96.1762 19.1789 92.4499 26.8401L92.2704 27.1446L78.9038 1.01473H79.2488C79.9387 1.01473 80.6314 1.06692 81.3157 1.01473C81.8767 0.956733 82.1178 1.20321 82.359 1.68458C85.3151 7.60205 88.2832 13.5166 91.2635 19.4283C91.5945 20.0837 91.9226 20.7419 92.2788 21.4582C92.3629 21.2987 92.4274 21.1943 92.4779 21.0812C94.2364 17.3608 96.0061 13.6433 97.7421 9.91124C99.0659 7.06656 100.35 4.19868 101.64 1.3366C101.673 1.22988 101.741 1.13832 101.832 1.07751C101.923 1.0167 102.032 0.990412 102.14 1.00313C106.692 1.01473 111.246 1.01473 115.801 1.00313C116.811 0.994722 117.814 1.1826 118.757 1.55699C119.579 1.86545 120.317 2.37567 120.908 3.04386C121.498 3.71206 121.922 4.51829 122.145 5.39339C122.704 7.19813 122.659 9.14492 122.018 10.9204C121.177 13.1416 119.654 14.6147 117.411 15.2207C116.859 15.3543 116.294 15.4147 115.728 15.4005C112.309 15.4179 108.893 15.4005 105.474 15.4005L105.098 15.4092Z" fill="white"/>
<path fill-rule="evenodd" clip-rule="evenodd" d="M68.0249 4.97293V5.28611C68.0249 9.3023 68.0249 13.3156 68.0249 17.3318C68.0543 18.5868 67.9251 19.8404 67.6406 21.0609C66.8834 23.9839 65.1165 25.8977 62.2867 26.6894C59.8411 27.3737 57.3535 27.4636 54.9331 26.6894C52.0725 25.7614 50.3533 23.6823 49.7839 20.6172C49.5784 19.4113 49.4845 18.1879 49.5035 16.9635C49.5035 11.7942 49.5035 6.62484 49.5035 1.4555V1.03793H51.9883V1.4265C51.9883 7.05014 51.993 12.6709 52.0024 18.2887C51.9581 19.741 52.3933 21.1656 53.2364 22.3281C53.9843 23.3319 55.0425 24.0401 56.2345 24.3347C58.0848 24.8509 60.0443 24.7618 61.8436 24.0796C63.9835 23.2647 65.1362 21.5915 65.4419 19.2833C65.5086 18.7158 65.5377 18.1441 65.5288 17.5725C65.5288 12.2021 65.5288 6.83169 65.5288 1.4613V1.03504C65.6466 1.03504 65.7391 1.01764 65.8317 1.01764C66.9114 1.01764 67.9884 1.01764 69.0654 1.01764C69.1598 1.00601 69.2553 1.02853 69.3356 1.08139C69.4158 1.13424 69.4759 1.21417 69.5057 1.30761C72.385 7.43001 75.2719 13.5495 78.1662 19.6661C78.8505 21.116 79.532 22.5659 80.2247 24.0158C80.2701 24.0963 80.2939 24.1879 80.2939 24.2811C80.2939 24.3743 80.2701 24.4658 80.2247 24.5464C79.8349 25.341 79.4591 26.1471 79.0777 26.9474C79.0524 26.9967 79.0216 27.046 78.9627 27.1533L68.0922 4.97003L68.0249 4.97293Z" fill="white"/>
<path d="M50.572 32.9326H53.657C56.0746 32.9326 57.704 34.5391 57.704 36.8357C57.704 39.1323 56.0746 40.7417 53.657 40.7417H50.572V32.9326ZM53.6038 40.0168C55.609 40.0168 56.9047 38.7003 56.9047 36.827C56.9047 34.9538 55.609 33.6373 53.6038 33.6373H51.3601V40.0168H53.6038Z" fill="white"/>
<path d="M64.3368 32.9326H65.1361V40.7417H64.3368V32.9326Z" fill="white"/>
<path d="M77.7707 36.8273H78.5279V39.814C77.7504 40.482 76.7648 40.8354 75.7542 40.8087C73.4573 40.8087 71.7717 39.1239 71.7717 36.836C71.7717 34.5481 73.4545 32.8633 75.7654 32.8633C76.9097 32.8633 77.9025 33.2432 78.57 33.9913L78.082 34.5075C77.7828 34.2024 77.4264 33.9638 77.0348 33.8062C76.6432 33.6486 76.2246 33.5754 75.8047 33.5911C73.9397 33.5911 72.5682 34.9656 72.5682 36.8273C72.5682 38.6889 73.9397 40.0634 75.7935 40.0634C76.4981 40.0874 77.1915 39.8759 77.7707 39.4603V36.8273Z" fill="white"/>
<path d="M85.646 32.9326H86.4425V40.7417H85.646V32.9326Z" fill="white"/>
<path d="M95.2264 33.6372H92.5704V32.9238H98.6788V33.6372H96.0229V40.7416H95.2264V33.6372Z" fill="white"/>
<path d="M109.165 38.6539H104.958L104.05 40.7417H103.208L106.661 32.9326H107.449L110.901 40.7417H110.06L109.165 38.6539ZM108.885 37.984L107.073 33.791L105.247 37.9869L108.885 37.984Z" fill="white"/>
<path d="M117.018 32.9326H117.817V40.0168H122.046V40.733H117.018V32.9326Z" fill="white"/>
</g>
<defs>
<clipPath id="clip0_3692_12255">
<rect width="123" height="48" fill="white"/>
</clipPath>
</defs>
</svg>
