<svg width="136" height="42" viewBox="0 0 136 42" fill="none" xmlns="http://www.w3.org/2000/svg">
<g clip-path="url(#clip0_777_66349)">
<path fill-rule="evenodd" clip-rule="evenodd" d="M117.329 15.0789V27.3585H114.669V12.4132H115.07C119.448 12.4132 123.826 12.4132 128.204 12.4132C129.072 12.4464 129.934 12.2501 130.704 11.8436C131.474 11.4371 132.125 10.8346 132.594 10.0958C133.001 9.46698 133.254 8.74911 133.331 8.00178C133.409 7.25445 133.309 6.49923 133.039 5.79883C132.77 5.09843 132.339 4.47306 131.782 3.97465C131.225 3.47623 130.558 3.11916 129.837 2.93307C129.284 2.78541 128.715 2.70784 128.143 2.70214C124.175 2.70214 120.202 2.70214 116.23 2.70214C116.13 2.68904 116.028 2.71029 115.941 2.76247C115.855 2.81464 115.788 2.89471 115.752 2.9898C111.771 11.0033 107.785 19.0154 103.794 27.0263C103.75 27.1154 103.698 27.2045 103.613 27.3625L89.292 0.0444816H89.6572C90.3955 0.0444816 91.1419 0.0971488 91.8722 0.0444816C92.4741 -0.0162881 92.7309 0.238945 92.9877 0.741309C96.1551 6.93982 99.3346 13.1316 102.526 19.3166C102.879 20.0053 103.228 20.69 103.613 21.4354C103.702 21.2734 103.77 21.16 103.826 21.0303C105.708 17.141 107.602 13.2558 109.444 9.35036C110.865 6.37669 112.253 3.37871 113.621 0.384791C113.657 0.273424 113.729 0.177873 113.826 0.114361C113.924 0.0508488 114.04 0.0232972 114.155 0.0363835C119.032 0.0363835 123.907 0.0363835 128.781 0.0363835C129.863 0.0268545 130.938 0.223398 131.948 0.615719C132.824 0.939744 133.611 1.47292 134.24 2.16985C134.868 2.86678 135.321 3.70682 135.559 4.61842C136.161 6.50585 136.113 8.5433 135.423 10.3996C135.039 11.5058 134.386 12.497 133.524 13.2826C132.663 14.0682 131.62 14.6232 130.491 14.8966C129.905 15.0352 129.303 15.0991 128.701 15.087C125.042 15.087 121.382 15.087 117.722 15.087L117.329 15.0789Z" fill="white"/>
<path fill-rule="evenodd" clip-rule="evenodd" d="M77.6348 4.16492V4.49308C77.6348 8.69024 77.6348 12.8888 77.6348 17.0886C77.6701 18.3999 77.5352 19.7101 77.2336 20.986C76.431 24.0447 74.537 26.0461 71.5034 26.8725C68.9328 27.6403 66.197 27.6403 63.6263 26.8725C60.5646 25.9043 58.7228 23.7328 58.1128 20.5282C57.8912 19.2674 57.789 17.9882 57.8079 16.7078C57.8079 11.306 57.8079 5.90428 57.8079 0.502529V0.0730908H60.4603V0.478222C60.4603 6.35668 60.4603 12.227 60.4603 18.1095C60.42 19.6238 60.8881 21.1072 61.7885 22.3189C62.5903 23.3667 63.7231 24.1058 64.9987 24.4134C66.9836 24.9578 69.087 24.8658 71.0178 24.1501C73.3091 23.2952 74.545 21.5451 74.8741 19.1345C74.9449 18.5404 74.9758 17.9422 74.9664 17.3439C74.9664 11.7287 74.9664 6.1136 74.9664 0.498474V0.0649926C75.0908 0.0649926 75.1911 0.0649926 75.2914 0.0649926C76.4431 0.0649926 77.5987 0.0649926 78.7504 0.0649926C78.8504 0.0523842 78.9516 0.0743639 79.0376 0.127342C79.1236 0.180321 79.1893 0.261169 79.2239 0.356688C82.311 6.75777 85.4022 13.1575 88.4973 19.5559C89.2317 21.0711 89.962 22.5903 90.7043 24.1055C90.7519 24.1894 90.7768 24.2844 90.7768 24.381C90.7768 24.4776 90.7519 24.5726 90.7043 24.6565C90.3031 25.491 89.9018 26.3297 89.4724 27.1683C89.4484 27.221 89.4163 27.2696 89.348 27.383C85.4503 19.6207 81.5713 11.8894 77.7111 4.18923L77.6348 4.16492Z" fill="white"/>
<path fill-rule="evenodd" clip-rule="evenodd" d="M14.0647 17.3516L45.4965 41.9998H0L14.0647 17.3516Z" fill="white"/>
<path fill-rule="evenodd" clip-rule="evenodd" d="M13.2422 6.75759L24.0164 0L47.8762 41.7286L13.2422 6.75759Z" fill="white"/>
<path fill-rule="evenodd" clip-rule="evenodd" d="M16.6446 12.8789L45.4963 41.9998L14.0645 17.3516L16.6446 12.8789Z" fill="#ABABAB"/>
<path d="M58.9434 33.3989H62.2338C64.822 33.3989 66.5676 35.0762 66.5676 37.4786C66.5676 39.881 64.822 41.5623 62.2338 41.5623H58.9434V33.3989ZM62.1897 40.8169C64.3365 40.8169 65.7249 39.4394 65.7249 37.4786C65.7249 35.5178 64.3365 34.1444 62.1897 34.1444H59.782V40.8169H62.1897Z" fill="white"/>
<path d="M73.7021 33.3989H74.5569V41.5623H73.7021V33.3989Z" fill="white"/>
<path d="M88.0681 37.4786H88.8706V40.5941C88.0388 41.2936 86.9834 41.6637 85.9012 41.6352C83.4414 41.6352 81.6396 39.8729 81.6396 37.4786C81.6396 35.0843 83.4414 33.326 85.9132 33.326C86.4677 33.302 87.0211 33.3943 87.5384 33.5973C88.0558 33.8002 88.5258 34.1093 88.9188 34.5049L88.3851 35.0559C88.0651 34.7372 87.684 34.488 87.2651 34.3236C86.8462 34.1592 86.3985 34.083 85.9493 34.0998C83.943 34.0998 82.4823 35.534 82.4823 37.4786C82.4765 37.9336 82.5626 38.3851 82.7354 38.8054C82.9083 39.2257 83.1642 39.606 83.4876 39.923C83.811 40.24 84.195 40.4871 84.6162 40.6491C85.0374 40.8112 85.4869 40.8848 85.9373 40.8655C86.6911 40.8893 87.4325 40.6677 88.052 40.2335L88.0681 37.4786Z" fill="white"/>
<path d="M96.498 33.3989H97.3528V41.5623H96.498V33.3989Z" fill="white"/>
<path d="M106.759 34.1444H103.918V33.3989H110.455V34.1444H107.614V41.5623H106.759V34.1444Z" fill="white"/>
<path d="M121.687 39.3827H117.18L116.209 41.5623H115.318L119.018 33.3989H119.849L123.544 41.5623H122.658L121.687 39.3827ZM121.374 38.6818L119.447 34.2943L117.505 38.6818H121.374Z" fill="white"/>
<path d="M130.093 33.3989H130.947V40.8169H135.498V41.5623H130.093V33.3989Z" fill="white"/>
</g>
<defs>
<clipPath id="clip0_777_66349">
<rect width="136" height="42" fill="white"/>
</clipPath>
</defs>
</svg>
