<svg width="103" height="40" viewBox="0 0 103 40" fill="none" xmlns="http://www.w3.org/2000/svg">
<g clip-path="url(#clip0_3656_6524)">
<path fill-rule="evenodd" clip-rule="evenodd" d="M11.3086 14.5137L35.6982 34.0074H0.392578L11.3086 14.5137Z" fill="white"/>
<path fill-rule="evenodd" clip-rule="evenodd" d="M10.6689 6.13044L19.0227 0.787598C25.2088 11.8116 31.3815 22.8122 37.541 33.7895L10.6689 6.13044Z" fill="white"/>
<path fill-rule="evenodd" clip-rule="evenodd" d="M13.3096 10.9756L35.6982 34.0071L11.3086 14.5133L13.3096 10.9756Z" fill="#ACACAC"/>
<path fill-rule="evenodd" clip-rule="evenodd" d="M88.0096 12.8412V22.6303H85.9264V10.7195H86.2365C89.6583 10.7195 93.0824 10.7195 96.5043 10.7195C97.9463 10.7195 99.1323 10.1323 99.9378 8.87332C100.257 8.37211 100.455 7.79983 100.516 7.20402C100.576 6.60821 100.498 6.00608 100.287 5.44766C100.076 4.88924 99.7391 4.39065 99.3034 3.99332C98.8676 3.59599 98.346 3.31139 97.7819 3.16317C97.3502 3.04624 96.906 2.98536 96.4597 2.98194C93.3549 2.96502 90.2478 2.98194 87.143 2.96986C87.0632 2.95992 86.9826 2.97851 86.9146 3.02251C86.8466 3.06651 86.7954 3.13325 86.7696 3.2115C83.6554 9.59746 80.5381 15.9826 77.4177 22.3669L77.2674 22.6207L66.0742 0.84577H66.3631C66.9408 0.84577 67.5209 0.889267 68.094 0.84577C68.5637 0.79744 68.7656 1.00284 68.9676 1.40398C71.443 6.33521 73.9285 11.264 76.4242 16.1904C76.7014 16.7365 76.9761 17.2851 77.2744 17.882C77.3449 17.749 77.3989 17.6621 77.4412 17.5678C78.9137 14.4675 80.3956 11.3695 81.8494 8.25953C82.9579 5.88896 84.0335 3.49907 85.1138 1.114C85.1415 1.02507 85.1983 0.948759 85.2745 0.898085C85.3508 0.847411 85.4417 0.825506 85.5319 0.836104C89.3444 0.84577 93.1576 0.84577 96.9716 0.836104C97.8176 0.829098 98.6572 0.985662 99.447 1.29765C100.136 1.55471 100.754 1.97989 101.248 2.53672C101.742 3.09355 102.098 3.7654 102.284 4.49466C102.752 5.99861 102.715 7.62093 102.178 9.10047C101.474 10.9515 100.199 12.1791 98.3197 12.6841C97.8581 12.7954 97.3846 12.8458 96.9106 12.8339C94.0477 12.8484 91.1872 12.8339 88.3243 12.8339L88.0096 12.8412Z" fill="white"/>
<path fill-rule="evenodd" clip-rule="evenodd" d="M56.9639 4.14427V4.40525C56.9639 7.75208 56.9639 11.0965 56.9639 14.4433C56.9885 15.4892 56.8804 16.5339 56.6422 17.5509C56.0081 19.9867 54.5285 21.5816 52.1588 22.2413C50.1109 22.8116 48.0277 22.8865 46.0009 22.2413C43.6054 21.468 42.1658 19.7354 41.689 17.1812C41.5169 16.1762 41.4383 15.1567 41.4541 14.1364C41.4541 9.82864 41.4541 5.52086 41.4541 1.21308V0.865109H43.535V1.18892C43.535 5.87528 43.5389 10.5592 43.5467 15.2407C43.5096 16.451 43.8741 17.6382 44.5801 18.6069C45.2064 19.4434 46.0925 20.0336 47.0906 20.2791C48.6401 20.7093 50.281 20.635 51.7877 20.0665C53.5797 19.3874 54.5449 17.9931 54.8009 16.0696C54.8568 15.5966 54.8812 15.1203 54.8737 14.6439C54.8737 10.1686 54.8737 5.69324 54.8737 1.21791V0.862692C54.9724 0.862692 55.0499 0.848193 55.1274 0.848193C56.0315 0.848193 56.9334 0.848193 57.8352 0.848193C57.9143 0.838504 57.9943 0.857273 58.0615 0.901317C58.1287 0.945361 58.179 1.01197 58.2039 1.08984C60.6151 6.19184 63.0325 11.2914 65.4562 16.3886C66.0293 17.5968 66.6 18.8051 67.1801 20.0133C67.218 20.0804 67.238 20.1567 67.238 20.2344C67.238 20.3121 67.218 20.3884 67.1801 20.4555C66.8536 21.1176 66.5389 21.7894 66.2195 22.4564C66.1984 22.4974 66.1725 22.5385 66.1232 22.6279L57.0203 4.14186L56.9639 4.14427Z" fill="white"/>
<path d="M42.3486 27.4438H44.932C46.9565 27.4438 48.321 28.7826 48.321 30.6964C48.321 32.6103 46.9565 33.9514 44.932 33.9514H42.3486V27.4438ZM44.8874 33.3473C46.5666 33.3473 47.6516 32.2502 47.6516 30.6892C47.6516 29.1281 46.5666 28.0311 44.8874 28.0311H43.0086V33.3473H44.8874Z" fill="white"/>
<path d="M53.876 27.4438H54.5453V33.9514H53.876V27.4438Z" fill="white"/>
<path d="M65.1251 30.6891H65.7592V33.178C65.1081 33.7347 64.2827 34.0292 63.4365 34.0069C61.513 34.0069 60.1016 32.6029 60.1016 30.6963C60.1016 28.7897 61.5107 27.3857 63.4459 27.3857C64.4041 27.3857 65.2355 27.7023 65.7944 28.3258L65.3858 28.7559C65.1352 28.5017 64.8368 28.3028 64.5089 28.1715C64.181 28.0402 63.8304 27.9792 63.4788 27.9923C61.917 27.9923 60.7685 29.1377 60.7685 30.6891C60.7685 32.2405 61.917 33.3859 63.4694 33.3859C64.0594 33.4059 64.6401 33.2296 65.1251 32.8832V30.6891Z" fill="white"/>
<path d="M71.7197 27.4438H72.3867V33.9514H71.7197V27.4438Z" fill="white"/>
<path d="M79.7426 28.031H77.5186V27.4365H82.6337V28.031H80.4096V33.9514H79.7426V28.031Z" fill="white"/>
<path d="M91.4151 32.2116H87.8922L87.1313 33.9514H86.4268L89.3178 27.4438H89.9778L92.8688 33.9514H92.1642L91.4151 32.2116ZM91.1802 31.6534L89.663 28.1591L88.1341 31.6558L91.1802 31.6534Z" fill="white"/>
<path d="M97.9902 27.4438H98.6596V33.3473H102.201V33.9442H97.9902V27.4438Z" fill="white"/>
</g>
<defs>
<clipPath id="clip0_3656_6524">
<rect width="103" height="40" fill="white"/>
</clipPath>
</defs>
</svg>
