<svg width="32" height="32" viewBox="0 0 32 32" fill="none" xmlns="http://www.w3.org/2000/svg">
<path d="M6.32919 9.13885C7.86366 9.13885 9.1076 7.89491 9.1076 6.36044C9.1076 4.82597 7.86366 3.58203 6.32919 3.58203C4.79472 3.58203 3.55078 4.82597 3.55078 6.36044C3.55078 7.89491 4.79472 9.13885 6.32919 9.13885Z" fill="white"/>
<path fill-rule="evenodd" clip-rule="evenodd" d="M11.731 26.6589V11.2442H16.3253V13.3522H16.39C17.0288 12.142 18.5907 10.8633 20.9208 10.8633C25.7741 10.8633 26.6681 14.0544 26.6681 18.2067V26.6601H21.8796V19.1629C21.8796 17.3763 21.8491 15.0766 19.3893 15.0766C16.8955 15.0766 16.517 17.0246 16.517 19.036V26.6589H11.731ZM8.72529 11.2442H3.93164V26.6589H8.72529V11.2442Z" fill="white"/>
</svg>
