<svg width="32" height="32" viewBox="0 0 32 32" fill="none" xmlns="http://www.w3.org/2000/svg">
<path fill-rule="evenodd" clip-rule="evenodd" d="M15.9995 9.84229C12.5984 9.84229 9.8418 12.5988 9.8418 16C9.8418 19.4012 12.5984 22.1577 15.9995 22.1577C19.4007 22.1577 22.1572 19.4012 22.1572 16C22.1572 12.5988 19.4007 9.84229 15.9995 9.84229ZM15.9995 20.0046C13.7915 20.0046 11.9949 18.208 11.9949 16C11.9949 13.792 13.7915 11.9954 15.9995 11.9954C18.2075 11.9954 20.0041 13.792 20.0041 16C20.0041 18.208 18.2075 20.0046 15.9995 20.0046Z" fill="white"/>
<path d="M23.8448 9.59576C23.8448 10.3911 23.2002 11.0358 22.4048 11.0358C21.6096 11.0358 20.9648 10.3911 20.9648 9.59576C20.9648 8.80047 21.6096 8.15576 22.4048 8.15576C23.2002 8.15576 23.8448 8.80047 23.8448 9.59576Z" fill="white"/>
<path fill-rule="evenodd" clip-rule="evenodd" d="M16 4C12.736 4 12.3383 4.01372 11.0491 4.06857C9.77372 4.13715 8.896 4.32915 8.14172 4.63085C7.34628 4.93257 6.688 5.344 6.016 6.016C5.344 6.688 4.93257 7.34628 4.63085 8.14172C4.32915 8.896 4.13715 9.77372 4.06857 11.0491C4.01372 12.3383 4 12.736 4 16C4 19.264 4.01372 19.6617 4.06857 20.9508C4.12343 22.2263 4.32915 23.104 4.63085 23.8583C4.93257 24.6537 5.344 25.312 6.016 25.984C6.688 26.656 7.34628 27.0675 8.14172 27.3692C8.90972 27.6708 9.77372 27.8628 11.0491 27.9315C12.3246 27.9863 12.736 28 16 28C19.264 28 19.6617 27.9863 20.9508 27.9315C22.2263 27.8765 23.104 27.6708 23.8583 27.3692C24.6537 27.0675 25.312 26.656 25.984 25.984C26.656 25.312 27.0675 24.6537 27.3692 23.8583C27.6708 23.0903 27.8628 22.2263 27.9315 20.9508C27.9863 19.6755 28 19.264 28 16C28 12.736 27.9863 12.3383 27.9315 11.0491C27.8765 9.77372 27.6708 8.896 27.3692 8.14172C27.0675 7.34628 26.656 6.688 25.984 6.016C25.312 5.344 24.6537 4.93257 23.8583 4.63085C23.0903 4.32915 22.2263 4.13715 20.9508 4.06857C19.6617 4.01372 19.264 4 16 4ZM16 6.16685C19.2092 6.16685 19.5795 6.18057 20.8548 6.23543C22.0205 6.29028 22.6652 6.48228 23.0765 6.64685C23.6388 6.86628 24.0365 7.12685 24.4617 7.53828C24.8868 7.96343 25.1475 8.36115 25.3532 8.92343C25.5177 9.34857 25.7097 9.97943 25.7645 11.1451C25.8195 12.4069 25.8332 12.7909 25.8332 16C25.8332 19.2092 25.8195 19.5795 25.7645 20.8548C25.7097 22.0205 25.5177 22.6652 25.3532 23.0765C25.1337 23.6388 24.8732 24.0365 24.4617 24.4617C24.0365 24.8868 23.6388 25.1475 23.0765 25.3532C22.6515 25.5177 22.0205 25.7097 20.8548 25.7645C19.5932 25.8195 19.2092 25.8332 16 25.8332C12.7909 25.8332 12.4206 25.8195 11.1451 25.7645C9.97943 25.7097 9.33485 25.5177 8.92343 25.3532C8.36115 25.1337 7.96343 24.8732 7.53828 24.4617C7.11315 24.0365 6.85257 23.6388 6.64685 23.0765C6.48228 22.6515 6.29028 22.0205 6.23543 20.8548C6.18057 19.5932 6.16685 19.2092 6.16685 16C6.16685 12.7909 6.18057 12.4206 6.23543 11.1451C6.29028 9.97943 6.48228 9.33485 6.64685 8.92343C6.86628 8.36115 7.12685 7.96343 7.53828 7.53828C7.96343 7.11315 8.36115 6.85257 8.92343 6.64685C9.34857 6.48228 9.97943 6.29028 11.1451 6.23543C12.4206 6.18057 12.7909 6.16685 16 6.16685Z" fill="white"/>
</svg>
