<svg width="32" height="32" viewBox="0 0 32 32" fill="none" xmlns="http://www.w3.org/2000/svg">
<g clip-path="url(#clip0_3668_33200)">
<path d="M24.7435 7.51706C21.3135 7.53356 18.7065 9.80205 17.7305 13.4171C16.093 10.8971 14.8155 8.01455 14.083 5.58105L10.473 5.59805L10.523 15.1671C10.5251 15.6176 10.4385 16.0641 10.2681 16.4811C10.0977 16.8981 9.84676 17.2775 9.52972 17.5975C9.21268 17.9176 8.8357 18.1721 8.42031 18.3465C8.00492 18.5208 7.55925 18.6117 7.10875 18.6138C6.19892 18.6181 5.32465 18.2608 4.67826 17.6205C4.3582 17.3035 4.10372 16.9265 3.92935 16.5111C3.75498 16.0957 3.66413 15.6501 3.662 15.1996L3.612 5.63055L0 5.64805L0.05 15.2176C0.064 19.1886 3.237 22.3351 7.12 22.3151C11.003 22.2951 14.1475 19.1221 14.13 15.1501L14.1225 13.5251C14.8505 14.9651 15.7605 16.4951 16.7605 17.8451L14.553 28.4171L18.253 28.4001L19.843 20.7191C21.291 21.6156 22.918 22.1491 24.813 22.1401C28.785 22.1226 32.02 18.8586 32 14.7051C31.982 10.7321 28.716 7.49855 24.744 7.51655L24.7435 7.51706ZM24.795 18.4401C23.351 18.4466 21.904 17.8221 20.726 16.8336L21.08 15.3836V15.2926C21.344 13.7556 22.143 11.1346 24.851 11.1226C25.8079 11.1208 26.7266 11.4978 27.4065 12.1712C28.0863 12.8446 28.4721 13.7597 28.4795 14.7166C28.398 16.7931 26.691 18.4266 24.7945 18.4351L24.795 18.4401Z" fill="white"/>
</g>
<defs>
<clipPath id="clip0_3668_33200">
<rect width="32" height="32" fill="white"/>
</clipPath>
</defs>
</svg>
