<svg width="49" height="48" viewBox="0 0 49 48" fill="none" xmlns="http://www.w3.org/2000/svg">
<rect x="0.5" width="48" height="48" rx="24" fill="#171717"/>
<path d="M21.142 12.5962L21.1419 12.5962C18.8427 13.3619 17.0662 14.5977 15.4179 16.5901C12.4201 20.2137 12.1736 26.0658 14.8811 30.2059M21.142 12.5962L14.8811 30.2059M21.142 12.5962C21.6738 12.4191 21.9348 12.5302 21.9913 12.5802C22.0065 12.5937 22.0162 12.6063 22.0156 12.6451C22.0149 12.697 21.9915 12.8106 21.871 12.9816L21.871 12.9816C20.4363 15.0193 19.871 16.675 19.8728 18.9196C19.8794 26.8933 28.9493 31.2952 35.298 26.4325L35.0107 26.0574L35.298 26.4325C35.5445 26.2437 35.7304 26.1613 35.8487 26.1354C35.9061 26.1228 35.9361 26.1251 35.9488 26.1279M21.142 12.5962L35.9488 26.1279M14.8811 30.2059C20.356 38.5776 33.0793 36.654 35.8958 27.0136C35.989 26.6944 36.0104 26.4584 35.9958 26.3021C35.985 26.1868 35.9582 26.1408 35.9488 26.1279M14.8811 30.2059L35.9488 26.1279M35.9564 26.1307C35.9563 26.1309 35.9546 26.1304 35.9519 26.1287C35.9552 26.1296 35.9566 26.1305 35.9564 26.1307Z" stroke="white"/>
</svg>
