<svg width="15" height="20" viewBox="0 0 15 20" fill="none" xmlns="http://www.w3.org/2000/svg">
<path d="M3.90685 18.8475C6.66628 20.0755 9.9129 18.8285 11.1387 16.0699L14.5426 8.42857C14.5648 8.37877 14.5651 8.32277 14.5456 8.27198C14.5261 8.22118 14.4884 8.17982 14.4386 8.15766L13.3576 7.67665C13.3083 7.65482 13.2523 7.65343 13.2019 7.67278C13.1516 7.69212 13.1109 7.73064 13.0888 7.77989L9.68496 15.4212C9.26261 16.3703 8.49512 17.0974 7.52579 17.4697C6.55647 17.842 5.49958 17.8156 4.5526 17.3925C3.60349 16.9701 2.87641 16.2026 2.50492 15.2354C2.13261 14.2661 2.15979 13.2113 2.58214 12.2622L6.05039 4.47232L6.61222 3.20978C7.13755 2.02926 8.52382 1.49681 9.70434 2.02214C10.2756 2.27633 10.7126 2.73751 10.9369 3.32165C11.1613 3.90579 11.1454 4.54092 10.8912 5.11214L7.45029 12.8405C7.36214 13.0347 7.20597 13.1845 7.00702 13.2609L7.00491 13.2618C6.80596 13.3382 6.59176 13.3306 6.39842 13.2445C6.20215 13.1572 6.05443 13.0002 5.97801 12.8013C5.90242 12.6045 5.90919 12.3881 5.99522 12.1948L8.8086 5.88045C8.83076 5.83065 8.83111 5.77466 8.8116 5.72386C8.79209 5.67307 8.75435 5.63171 8.70455 5.60955L7.62363 5.12854C7.57428 5.10671 7.51829 5.10532 7.46792 5.12466C7.41754 5.14401 7.37688 5.18253 7.35484 5.23178L4.54439 11.5474C4.28499 12.1304 4.2689 12.7777 4.49732 13.3724C4.72574 13.9671 5.17397 14.4386 5.75398 14.6967C6.95793 15.2324 8.3709 14.6873 8.90747 13.4855L9.24037 12.7334L12.3462 5.75789C12.5577 5.28632 12.6735 4.77744 12.6869 4.26077C12.7002 3.74411 12.6109 3.22993 12.424 2.74807C12.0476 1.76816 11.3109 0.994639 10.353 0.568379C9.36078 0.128593 8.28371 0.131839 7.34401 0.492764C6.40431 0.853688 5.60199 1.57229 5.16139 2.56241L1.12919 11.6157C0.536893 12.9506 0.496976 14.4402 1.02129 15.8053C1.5443 17.1733 2.57107 18.2531 3.90685 18.8475Z" fill="#F8F8F8"/>
</svg>
