<svg width="31" height="31" viewBox="0 0 31 31" fill="none" xmlns="http://www.w3.org/2000/svg">
<path d="M14.6221 4.24476C14.7855 4.66513 14.9841 4.85527 15.1438 4.90956C15.4531 5.01464 15.6682 5.03144 15.8138 5.00688C15.9428 4.98512 16.0428 4.92759 16.1342 4.80969C16.2357 4.67869 16.3353 4.45971 16.4069 4.10967C16.4779 3.76288 16.5156 3.31728 16.5156 2.76049C16.5156 1.62222 16.3477 0.998116 16.124 0.7117C16.0292 0.590367 15.9261 0.531597 15.7967 0.509786C15.6517 0.485339 15.4385 0.502551 15.1341 0.609982L14.6221 4.24476ZM14.6221 4.24476C14.4651 3.84082 14.3781 3.31304 14.3765 2.76613M14.6221 4.24476L14.3765 2.76613M16.9234 26.5956C17.0605 26.9831 17.0567 29.6035 16.9184 30.0081L16.9234 26.5956ZM16.9234 26.5956C16.6456 25.8105 15.7487 25.3742 14.9909 25.6556L16.9234 26.5956ZM14.3765 2.76613C14.3749 2.21927 14.4588 1.69018 14.6136 1.28385M14.3765 2.76613L14.6136 1.28385M14.6136 1.28385C14.7747 0.861146 14.9729 0.666904 15.134 0.609993L14.6136 1.28385ZM22.7435 7.01229C22.7442 7.01261 22.7586 6.98412 22.8057 6.91812C22.8595 6.84277 22.9354 6.74636 23.0308 6.63309C23.2207 6.40738 23.471 6.13439 23.7352 5.86288C23.9993 5.59154 24.2717 5.32735 24.5047 5.11859C24.6213 5.01405 24.7247 4.92653 24.8098 4.8601C24.8523 4.82695 24.8879 4.80098 24.9164 4.78164C24.9305 4.77206 24.9418 4.76485 24.9505 4.75962L24.9605 4.75378L24.9633 4.7523L24.9638 4.75204L24.9642 4.75183L22.7435 7.01229ZM22.7435 7.01229C22.4723 7.83423 23.2069 8.57323 24.038 8.30008C24.0377 8.29942 24.0663 8.28502 24.1327 8.23789C24.2083 8.18424 24.305 8.10847 24.4186 8.01339C24.6449 7.82393 24.9187 7.5743 25.1909 7.3108C25.463 7.04748 25.7279 6.77583 25.9372 6.54346C26.042 6.42709 26.1298 6.32406 26.1964 6.23913C26.2296 6.19676 26.2556 6.16137 26.275 6.13295C26.2846 6.11889 26.2918 6.10762 26.297 6.09899L26.3028 6.08905C26.3041 6.08686 26.3046 6.0857 26.3047 6.0855C26.723 5.24836 25.8135 4.32981 24.9642 4.75181L22.7435 7.01229ZM22.7435 24.0413C22.5654 23.4993 22.8579 22.919 23.3242 22.7544C23.56 22.6712 23.7886 22.669 24.0487 22.7571C24.0418 22.7547 24.0381 22.7533 24.038 22.7535C24.0377 22.7542 24.0663 22.7686 24.1327 22.8157C24.2083 22.8694 24.305 22.9451 24.4186 23.0402C24.6449 23.2297 24.9187 23.4793 25.1909 23.7428C25.463 24.0061 25.7279 24.2778 25.9372 24.5101C26.042 24.6265 26.1298 24.7295 26.1964 24.8145C26.2296 24.8568 26.2556 24.8922 26.275 24.9206C26.2783 24.9255 26.2813 24.93 26.2841 24.9342C26.2893 24.9421 26.2936 24.9489 26.297 24.9546L26.3028 24.9645C26.3041 24.9667 26.3046 24.9679 26.3047 24.9681C26.3048 24.9681 26.3048 24.9681 26.3048 24.9681C26.723 25.8053 25.8135 26.7238 24.9642 26.3018L22.7435 24.0413ZM22.7435 24.0413C22.7444 24.0414 22.7589 24.0699 22.8057 24.1355C22.8595 24.2108 22.9354 24.3072 23.0308 24.4205C23.2207 24.6462 23.471 24.9192 23.7352 25.1907C23.9993 25.462 24.2717 25.7262 24.5047 25.935C24.6213 26.0395 24.7247 26.1271 24.8098 26.1935C24.8523 26.2266 24.8879 26.2526 24.9164 26.272C24.9305 26.2815 24.9418 26.2887 24.9505 26.294L24.9605 26.2998L24.9633 26.3013C24.9638 26.3016 24.9641 26.3017 24.9642 26.3018L22.7435 24.0413ZM10.7295 10.0649L10.7296 10.0649C11.8398 9.10628 12.8588 8.64377 14.6789 8.31075C18.2626 7.65513 21.028 9.88374 22.1301 12.878C23.2328 15.874 22.6156 19.5015 19.5222 21.5582C15.8145 24.0232 11.9463 22.6328 9.81341 19.8435C7.68088 17.0546 7.3625 12.9719 10.7295 10.0649ZM26.5763 14.1094C25.239 14.598 25.2532 16.4743 26.5977 16.9474L30.0194 16.9425C31.3269 16.4982 31.3269 14.5554 30.0194 14.1111C29.6272 13.9778 26.9399 13.9765 26.5763 14.1094ZM15.1535 30.4454L14.9926 30.9188L15.1535 30.4454C14.9871 30.3889 14.7866 30.1962 14.6232 29.7788C14.4656 29.3764 14.379 28.8506 14.3788 28.3045C14.3786 27.7587 14.4648 27.229 14.6229 26.8196C14.7868 26.3954 14.9906 26.189 15.1649 26.1243C15.6477 25.9451 16.2625 26.2268 16.452 26.7624C16.451 26.7595 16.4511 26.7603 16.4522 26.7654C16.4547 26.7781 16.4625 26.8172 16.4715 26.8947C16.4827 26.9903 16.4925 27.115 16.5006 27.2627C16.5167 27.5573 16.5247 27.9241 16.5241 28.2947C16.5236 28.6653 16.5146 29.0332 16.4976 29.3301C16.4891 29.4789 16.4788 29.6052 16.4673 29.7028C16.4568 29.7921 16.4478 29.8341 16.4456 29.8443C16.4451 29.8466 16.445 29.8472 16.4453 29.8464L16.4452 29.8464C16.2786 30.3343 15.6925 30.6286 15.1535 30.4454ZM6.53706 7.94711C5.82498 7.58348 5.10276 6.90547 4.69302 6.0855C4.57408 5.84745 4.56832 5.5471 4.67348 5.27138C4.77889 4.99499 4.97562 4.79389 5.20022 4.71453C5.46995 4.61927 5.83308 4.66233 6.26396 4.88823C6.68866 5.11088 7.11806 5.48207 7.46794 5.91993C7.8193 6.35964 8.06325 6.83236 8.15341 7.23861C8.24368 7.64536 8.16825 7.90351 8.01256 8.05879C7.90679 8.16427 7.74052 8.23419 7.48237 8.22645C7.2194 8.21856 6.89225 8.12848 6.53706 7.94711ZM24.0487 8.29652L24.0486 8.29653L24.0487 8.29652ZM26.7637 16.4758C25.8593 16.1576 25.8542 14.9069 26.7464 14.5795C26.7443 14.5803 26.7431 14.5808 26.7432 14.5809C26.7434 14.5815 26.7779 14.573 26.8691 14.5626C26.9644 14.5518 27.0898 14.5421 27.2391 14.5341C27.5369 14.5183 27.9098 14.5103 28.2869 14.5104C28.6639 14.5106 29.0387 14.519 29.3403 14.5352C29.4914 14.5433 29.6195 14.5532 29.718 14.5642C29.8017 14.5736 29.8431 14.5818 29.8554 14.5842C29.8596 14.585 29.8605 14.5852 29.8585 14.5845C30.7138 14.8752 30.7138 16.1784 29.8585 16.469C29.8592 16.4688 29.8586 16.469 29.8565 16.4694C29.8466 16.4715 29.8043 16.4807 29.7138 16.4913C29.6158 16.5027 29.4891 16.513 29.3398 16.5214C29.0421 16.5384 28.673 16.5474 28.3014 16.5479C27.9297 16.5485 27.5619 16.5405 27.2663 16.5245C27.1182 16.5164 26.9931 16.5066 26.8971 16.4954C26.8188 16.4864 26.7793 16.4785 26.7667 16.476C26.7617 16.475 26.761 16.4748 26.7637 16.4758ZM4.69302 24.9681L4.69305 24.968C4.69372 24.9668 4.70076 24.9539 4.7193 24.9269C4.73798 24.8998 4.76343 24.8654 4.79628 24.8238C4.86208 24.7404 4.94932 24.6383 5.05381 24.5223C5.26241 24.2908 5.52724 24.018 5.79889 23.7529C6.0707 23.4876 6.34389 23.2352 6.56864 23.0435C6.68145 22.9473 6.77724 22.8706 6.85169 22.8162C6.91253 22.7718 6.94024 22.7566 6.94235 22.7547C7.77858 22.4716 8.52558 23.2188 8.25425 24.0413C8.25359 24.041 8.23918 24.0695 8.19208 24.1355C8.13831 24.2108 8.06235 24.3072 7.96702 24.4205C7.77706 24.6462 7.52675 24.9192 7.26255 25.1907C6.99852 25.462 6.72612 25.7262 6.49312 25.935C6.37643 26.0395 6.27311 26.1271 6.18793 26.1935C6.14543 26.2266 6.10992 26.2526 6.08139 26.272C6.06727 26.2815 6.05595 26.2887 6.04726 26.294L6.03723 26.2998L6.03449 26.3013C6.03395 26.3016 6.03365 26.3017 6.03358 26.3018C6.03357 26.3018 6.03356 26.3018 6.03355 26.3018C5.18429 26.7238 4.27479 25.8053 4.693 24.9681L4.69302 24.9681Z" stroke="#171717"/>
</svg>
